# Blender v2.77 (sub 0) OBJ File: ''
# www.blender.org
mtllib pyramid.mtl
o Pyramid
v -0.040014 -0.039992 0.030215
v 0.039986 -0.039992 0.030215
v 0.039986 0.040008 0.030215
v -0.040014 0.040008 0.030215
v -0.000014 0.000008 -0.069785
vt 0.0000 0.0000
vt 1.0000 0.0000
vt 1.0000 1.0000
vt 0.0000 1.0000
vt 0.0000 0.0000
vt 0.5000 1.0000
vt 0.0000 0.0000
vt 1.0000 0.0000
vt 1.0000 0.0000
vt 0.0000 0.0000
vt 1.0000 0.0000
vn 0.0000 -0.0000 1.0000
vn 0.9285 0.0000 -0.3714
vn 0.0000 -0.9285 -0.3714
vn -0.9285 0.0000 -0.3714
vn 0.0000 0.9285 -0.3714
usemtl Mat
s off
f 1/1/1 2/2/1 3/3/1 4/4/1
f 3/5/2 2/2/2 5/6/2
f 2/7/3 1/8/3 5/6/3
f 1/1/4 4/9/4 5/6/4
f 4/10/5 3/11/5 5/6/5
