#  ==========================================================================
#  
#  Wavefront OBJ format exported by Red-i Productions' "Riptide Pro"
#     (a commercial plugin for Cinema 4D PC & Mac, R9.6 or later)
#  
#  Red-i Productions
#  http://skinprops.com
#  
#  ==========================================================================
mtllib pyramid.mtl
v -0.040014 -0.039992 0.100853
v 0.039986 -0.039992 0.100853
v 0.039986 0.040008 0.100853
v -0.040014 0.040008 0.100853
v -1.4e-05 8e-06 0.000852772
# 5 vertices

vt 0.00000 1.00000
vt 1.00000 1.00000
vt 1.00000 0.00000
vt 0.00000 0.00000
vt 0.50000 1.00000
# 5 texture coordinates

vn 0 0 1
vn 0.928481 0 -0.37138
vn 0 -0.928481 -0.37138
vn -0.928481 0 -0.37138
vn 0 0.928481 -0.37138
# 5 vertex normals

usemtl Mat
f 1/4/1 2/3/1 3/2/1 4/1/1
f 3/4/2 2/3/2 5/5/2
f 2/4/3 1/3/3 5/5/3
f 1/4/4 4/3/4 5/5/4
f 4/4/5 3/3/5 5/5/5
# 5 facets

