{
  "accessors": [
    {
      "bufferView": 2,
      "componentType": 5126,
      "count": 386,
      "max": [
        0.5221869945526123,
        0.34318199753761292,
        0.19854900240898132
      ],
      "min": [
        -0.52053302526473999,
        0.011226500384509563,
        0.08765149861574173
      ],
      "type": "VEC3"
    },
    {
      "bufferView": 2,
      "byteOffset": 4632,
      "componentType": 5126,
      "count": 386,
      "max": [
        0.88193714618682861,
        0.88187724351882935,
        1
      ],
      "min": [
        -0.88193714618682861,
        -0.88187688589096069,
        0.47130405902862549
      ],
      "type": "VEC3"
    },
    {
      "bufferView": 3,
      "componentType": 5126,
      "count": 386,
      "max": [
        -0.064992859959602356,
        0.99063831567764282,
        0.8332330584526062,
        1
      ],
      "min": [
        -1,
        -0.99065119028091431,
        -0.83323317766189575,
        -1
      ],
      "type": "VEC4"
    },
    {
      "bufferView": 1,
      "componentType": 5126,
      "count": 386,
      "max": [
        0.48159998655319214,
        -0.71215498447418213
      ],
      "min": [
        -0.48159998655319214,
        -0.81459498405456543
      ],
      "type": "VEC2"
    },
    {
      "bufferView": 1,
      "byteOffset": 3088,
      "componentType": 5126,
      "count": 386,
      "max": [
        0.48159998655319214,
        -0.71215498447418213
      ],
      "min": [
        -0.48159998655319214,
        -0.81459498405456543
      ],
      "type": "VEC2"
    },
    {
      "bufferView": 1,
      "byteOffset": 6176,
      "componentType": 5126,
      "count": 386,
      "max": [
        0.48159998655319214,
        -0.71215498447418213
      ],
      "min": [
        -0.48159998655319214,
        -0.81459498405456543
      ],
      "type": "VEC2"
    },
    {
      "bufferView": 1,
      "byteOffset": 9264,
      "componentType": 5126,
      "count": 386,
      "max": [
        0.48159998655319214,
        -0.71215498447418213
      ],
      "min": [
        -0.48159998655319214,
        -0.81459498405456543
      ],
      "type": "VEC2"
    },
    {
      "bufferView": 0,
      "componentType": 5125,
      "count": 2112,
      "max": [
        385
      ],
      "min": [
        0
      ],
      "type": "SCALAR"
    },
    {
      "bufferView": 2,
      "byteOffset": 9264,
      "componentType": 5126,
      "count": 1616,
      "max": [
        0.88089698553085327,
        1,
        0.52678000926971436
      ],
      "min": [
        -0.88089698553085327,
        -1,
        -0.52678000926971436
      ],
      "type": "VEC3"
    },
    {
      "bufferView": 2,
      "byteOffset": 28656,
      "componentType": 5126,
      "count": 1616,
      "max": [
        0.99235087633132935,
        0.99623990058898926,
        0.99969464540481567
      ],
      "min": [
        -0.99234789609909058,
        -0.9926612377166748,
        -0.999969482421875
      ],
      "type": "VEC3"
    },
    {
      "bufferView": 3,
      "byteOffset": 6176,
      "componentType": 5126,
      "count": 1616,
      "max": [
        0.38151779770851135,
        0.8033902645111084,
        0.99891972541809082,
        1
      ],
      "min": [
        -1,
        -0.72845351696014404,
        -0.99996745586395264,
        -1
      ],
      "type": "VEC4"
    },
    {
      "bufferView": 1,
      "byteOffset": 12352,
      "componentType": 5126,
      "count": 1616,
      "max": [
        0.99861198663711548,
        0.99922901391983032
      ],
      "min": [
        0.001135980011895299,
        0.0019849499221891165
      ],
      "type": "VEC2"
    },
    {
      "bufferView": 1,
      "byteOffset": 25280,
      "componentType": 5126,
      "count": 1616,
      "max": [
        0.99861198663711548,
        0.99922901391983032
      ],
      "min": [
        0.001135980011895299,
        0.0019849499221891165
      ],
      "type": "VEC2"
    },
    {
      "bufferView": 1,
      "byteOffset": 38208,
      "componentType": 5126,
      "count": 1616,
      "max": [
        0.99861198663711548,
        0.99922901391983032
      ],
      "min": [
        0.001135980011895299,
        0.0019849499221891165
      ],
      "type": "VEC2"
    },
    {
      "bufferView": 1,
      "byteOffset": 51136,
      "componentType": 5126,
      "count": 1616,
      "max": [
        0.99861198663711548,
        0.99922901391983032
      ],
      "min": [
        0.001135980011895299,
        0.0019849499221891165
      ],
      "type": "VEC2"
    },
    {
      "bufferView": 0,
      "byteOffset": 8448,
      "componentType": 5125,
      "count": 8982,
      "max": [
        1615
      ],
      "min": [
        0
      ],
      "type": "SCALAR"
    },
    {
      "bufferView": 2,
      "byteOffset": 48048,
      "componentType": 5126,
      "count": 660,
      "max": [
        0.5566440224647522,
        0.25797399878501892,
        0.24081200361251831
      ],
      "min": [
        -0.55499100685119629,
        0.12643200159072876,
        0.068089596927165985
      ],
      "type": "VEC3"
    },
    {
      "bufferView": 2,
      "byteOffset": 55968,
      "componentType": 5126,
      "count": 660,
      "max": [
        0.99246948957443237,
        0.99690878391265869,
        0.9988861083984375
      ],
      "min": [
        -0.99246948957443237,
        -0.99881398677825928,
        -0.99954545497894287
      ],
      "type": "VEC3"
    },
    {
      "bufferView": 3,
      "byteOffset": 32032,
      "componentType": 5126,
      "count": 660,
      "max": [
        0.31577584147453308,
        0.99939489364624023,
        0.6598089337348938,
        1
      ],
      "min": [
        -0.99996936321258545,
        -0.99939489364624023,
        -0.65980935096740723,
        -1
      ],
      "type": "VEC4"
    },
    {
      "bufferView": 1,
      "byteOffset": 64064,
      "componentType": 5126,
      "count": 660,
      "max": [
        0.51342999935150146,
        -0.69408500194549561
      ],
      "min": [
        -0.51342999935150146,
        -0.85363501310348511
      ],
      "type": "VEC2"
    },
    {
      "bufferView": 1,
      "byteOffset": 69344,
      "componentType": 5126,
      "count": 660,
      "max": [
        0.51342999935150146,
        -0.69408500194549561
      ],
      "min": [
        -0.51342999935150146,
        -0.85363501310348511
      ],
      "type": "VEC2"
    },
    {
      "bufferView": 1,
      "byteOffset": 74624,
      "componentType": 5126,
      "count": 660,
      "max": [
        0.51342999935150146,
        -0.69408500194549561
      ],
      "min": [
        -0.51342999935150146,
        -0.85363501310348511
      ],
      "type": "VEC2"
    },
    {
      "bufferView": 1,
      "byteOffset": 79904,
      "componentType": 5126,
      "count": 660,
      "max": [
        0.51342999935150146,
        -0.69408500194549561
      ],
      "min": [
        -0.51342999935150146,
        -0.85363501310348511
      ],
      "type": "VEC2"
    },
    {
      "bufferView": 0,
      "byteOffset": 44376,
      "componentType": 5125,
      "count": 3936,
      "max": [
        659
      ],
      "min": [
        0
      ],
      "type": "SCALAR"
    }
  ],
  "asset": {
    "extras": {
      "author": "naxete (https://sketchfab.com/naxete)",
      "license": "CC-BY-4.0 (http://creativecommons.org/licenses/by/4.0/)",
      "source": "https://sketchfab.com/models/79df6677512249e9b98b898676182e1b",
      "title": "Ghost in the Shell Geisha Mask"
    },
    "generator": "Sketchfab-3.36.2",
    "version": "2.0"
  },
  "bufferViews": [
    {
      "buffer": 0,
      "byteLength": 60120,
      "byteOffset": 0,
      "name": "floatBufferViews",
      "target": 34963
    },
    {
      "buffer": 0,
      "byteLength": 85184,
      "byteOffset": 60120,
      "byteStride": 8,
      "name": "floatBufferViews",
      "target": 34962
    },
    {
      "buffer": 0,
      "byteLength": 63888,
      "byteOffset": 145304,
      "byteStride": 12,
      "name": "floatBufferViews",
      "target": 34962
    },
    {
      "buffer": 0,
      "byteLength": 42592,
      "byteOffset": 209192,
      "byteStride": 16,
      "name": "floatBufferViews",
      "target": 34962
    }
  ],
  "buffers": [
    {
      "byteLength": 251784,
      "uri": "scene.bin"
    }
  ],
  "images": [
    {
      "uri": "textures/Face_metallicRoughness.png"
    },
    {
      "uri": "textures/Face_baseColor.jpeg"
    },
    {
      "uri": "textures/Face_normal.png"
    },
    {
      "uri": "textures/Eyes_metallicRoughness.png"
    },
    {
      "uri": "textures/Eyes_baseColor.jpeg"
    },
    {
      "uri": "textures/Eyes_normal.png"
    },
    {
      "uri": "textures/Face02_metallicRoughness.png"
    },
    {
      "uri": "textures/Face02_baseColor.jpeg"
    },
    {
      "uri": "textures/Face02_normal.png"
    }
  ],
  "materials": [
    {
      "doubleSided": true,
      "emissiveFactor": [
        0,
        0,
        0
      ],
      "name": "Eyes",
      "normalTexture": {
        "index": 5,
        "scale": 1,
        "texCoord": 0
      },
      "pbrMetallicRoughness": {
        "baseColorFactor": [
          1,
          1,
          1,
          1
        ],
        "baseColorTexture": {
          "index": 4,
          "texCoord": 0
        },
        "metallicFactor": 1,
        "metallicRoughnessTexture": {
          "index": 3,
          "texCoord": 0
        },
        "roughnessFactor": 1
      }
    },
    {
      "doubleSided": true,
      "emissiveFactor": [
        0,
        0,
        0
      ],
      "name": "Face",
      "normalTexture": {
        "index": 2,
        "scale": 1,
        "texCoord": 0
      },
      "pbrMetallicRoughness": {
        "baseColorFactor": [
          1,
          1,
          1,
          1
        ],
        "baseColorTexture": {
          "index": 1,
          "texCoord": 0
        },
        "metallicFactor": 0.12,
        "metallicRoughnessTexture": {
          "index": 0,
          "texCoord": 0
        },
        "roughnessFactor": 1
      }
    },
    {
      "doubleSided": true,
      "emissiveFactor": [
        0,
        0,
        0
      ],
      "name": "Face02",
      "normalTexture": {
        "index": 8,
        "scale": 1,
        "texCoord": 0
      },
      "pbrMetallicRoughness": {
        "baseColorFactor": [
          1,
          1,
          1,
          1
        ],
        "baseColorTexture": {
          "index": 7,
          "texCoord": 0
        },
        "metallicFactor": 1,
        "metallicRoughnessTexture": {
          "index": 6,
          "texCoord": 0
        },
        "roughnessFactor": 1
      }
    }
  ],
  "meshes": [
    {
      "primitives": [
        {
          "attributes": {
            "NORMAL": 1,
            "POSITION": 0,
            "TANGENT": 2,
            "TEXCOORD_0": 3,
            "TEXCOORD_1": 4,
            "TEXCOORD_2": 5,
            "TEXCOORD_3": 6
          },
          "indices": 7,
          "material": 0,
          "mode": 4
        }
      ]
    },
    {
      "primitives": [
        {
          "attributes": {
            "NORMAL": 9,
            "POSITION": 8,
            "TANGENT": 10,
            "TEXCOORD_0": 11,
            "TEXCOORD_1": 12,
            "TEXCOORD_2": 13,
            "TEXCOORD_3": 14
          },
          "indices": 15,
          "material": 1,
          "mode": 4
        }
      ]
    },
    {
      "primitives": [
        {
          "attributes": {
            "NORMAL": 17,
            "POSITION": 16,
            "TANGENT": 18,
            "TEXCOORD_0": 19,
            "TEXCOORD_1": 20,
            "TEXCOORD_2": 21,
            "TEXCOORD_3": 22
          },
          "indices": 23,
          "material": 2,
          "mode": 4
        }
      ]
    }
  ],
  "nodes": [
    {
      "children": [
        1
      ],
      "name": "RootNode (gltf orientation matrix)",
      "rotation": [
        -0.70710678118654746,
        -0,
        -0,
        0.70710678118654757
      ]
    },
    {
      "children": [
        2
      ],
      "name": "RootNode (model correction matrix)"
    },
    {
      "children": [
        3
      ],
      "name": "root"
    },
    {
      "children": [
        4
      ],
      "matrix": [
        1,
        0,
        0,
        0,
        0,
        2.2204460492503131e-16,
        1,
        0,
        0,
        -1,
        2.2204460492503131e-16,
        0,
        0,
        0,
        0,
        1
      ],
      "name": "GLTF_SceneRootNode"
    },
    {
      "children": [
        5
      ],
      "name": "gits_geisha_mask.glb_9"
    },
    {
      "children": [
        6
      ],
      "matrix": [
        1,
        0,
        0,
        0,
        0,
        2.2204460492503131e-16,
        -1,
        0,
        0,
        1,
        2.2204460492503131e-16,
        0,
        0,
        0,
        0,
        1
      ],
      "name": "RootNode_(gltf_orientation_matrix)_8"
    },
    {
      "children": [
        7
      ],
      "name": "RootNode_(model_correction_matrix)_7"
    },
    {
      "children": [
        8,
        11,
        14
      ],
      "matrix": [
        1,
        0,
        0,
        0,
        0,
        -4.3711391839451608e-08,
        1,
        0,
        0,
        -1,
        -4.3711391839451608e-08,
        0,
        0,
        0,
        0,
        1
      ],
      "name": "Collada_visual_scene_group_6"
    },
    {
      "children": [
        9
      ],
      "name": "Object002_1"
    },
    {
      "children": [
        10
      ],
      "name": "defaultMaterial_0"
    },
    {
      "mesh": 0,
      "name": ""
    },
    {
      "children": [
        12
      ],
      "name": "Object001_3"
    },
    {
      "children": [
        13
      ],
      "name": "defaultMaterial_2"
    },
    {
      "mesh": 1,
      "name": ""
    },
    {
      "children": [
        15
      ],
      "name": "GeishaMask_Decimation1_5"
    },
    {
      "children": [
        16
      ],
      "name": "defaultMaterial_4"
    },
    {
      "mesh": 2,
      "name": ""
    }
  ],
  "samplers": [
    {
      "magFilter": 9729,
      "minFilter": 9987,
      "wrapS": 10497,
      "wrapT": 10497
    }
  ],
  "scene": 0,
  "scenes": [
    {
      "name": "OSG_Scene",
      "nodes": [
        0
      ]
    }
  ],
  "textures": [
    {
      "sampler": 0,
      "source": 0
    },
    {
      "sampler": 0,
      "source": 1
    },
    {
      "sampler": 0,
      "source": 2
    },
    {
      "sampler": 0,
      "source": 3
    },
    {
      "sampler": 0,
      "source": 4
    },
    {
      "sampler": 0,
      "source": 5
    },
    {
      "sampler": 0,
      "source": 6
    },
    {
      "sampler": 0,
      "source": 7
    },
    {
      "sampler": 0,
      "source": 8
    }
  ]
}

