# Blender v2.76 (sub 0) OBJ File: ''
# www.blender.org
mtllib disk.mtl
o Cylinder
v 0.482963 -0.005000 -0.129410
v 0.500000 -0.005000 -0.000000
v 0.000000 -0.005000 -0.000000
v 0.482963 -0.005000 -0.129410
v 0.482963 0.005000 -0.129410
v 0.500000 0.005000 0.000000
v 0.500000 -0.005000 -0.000000
v 0.482963 0.005000 -0.129410
v 0.000000 0.005000 0.000000
v 0.500000 0.005000 0.000000
v 0.433013 -0.005000 -0.250000
v 0.433013 -0.005000 -0.250000
v 0.433013 0.005000 -0.250000
v 0.433013 0.005000 -0.250000
v 0.353553 -0.005000 -0.353553
v 0.353553 -0.005000 -0.353553
v 0.353553 0.005000 -0.353553
v 0.353553 0.005000 -0.353553
v 0.250000 -0.005000 -0.433013
v 0.250000 -0.005000 -0.433013
v 0.250000 0.005000 -0.433013
v 0.250000 0.005000 -0.433013
v 0.129410 -0.005000 -0.482963
v 0.129410 -0.005000 -0.482963
v 0.129410 0.005000 -0.482963
v 0.129410 0.005000 -0.482963
v 0.000000 -0.005000 -0.500000
v 0.000000 -0.005000 -0.500000
v 0.000000 0.005000 -0.500000
v 0.000000 0.005000 -0.500000
v -0.129410 -0.005000 -0.482963
v -0.129410 -0.005000 -0.482963
v -0.129410 0.005000 -0.482963
v -0.129410 0.005000 -0.482963
v -0.250000 -0.005000 -0.433013
v -0.250000 -0.005000 -0.433013
v -0.250000 0.005000 -0.433013
v -0.250000 0.005000 -0.433013
v -0.353553 -0.005000 -0.353553
v -0.353553 -0.005000 -0.353553
v -0.353553 0.005000 -0.353553
v -0.353553 0.005000 -0.353553
v -0.433013 -0.005000 -0.250000
v -0.433013 -0.005000 -0.250000
v -0.433013 0.005000 -0.250000
v -0.433013 0.005000 -0.250000
v -0.482963 -0.005000 -0.129410
v -0.482963 -0.005000 -0.129410
v -0.482963 0.005000 -0.129410
v -0.482963 0.005000 -0.129410
v -0.500000 -0.005000 -0.000000
v -0.500000 -0.005000 -0.000000
v -0.500000 0.005000 0.000000
v -0.500000 0.005000 0.000000
v -0.482963 -0.005000 0.129410
v -0.482963 -0.005000 0.129410
v -0.482963 0.005000 0.129410
v -0.482963 0.005000 0.129410
v -0.433013 -0.005000 0.250000
v -0.433013 -0.005000 0.250000
v -0.433013 0.005000 0.250000
v -0.433013 0.005000 0.250000
v -0.353553 -0.005000 0.353553
v -0.353553 -0.005000 0.353553
v -0.353553 0.005000 0.353553
v -0.353553 0.005000 0.353553
v -0.250000 -0.005000 0.433013
v -0.250000 -0.005000 0.433013
v -0.250000 0.005000 0.433013
v -0.250000 0.005000 0.433013
v -0.129410 -0.005000 0.482963
v -0.129410 -0.005000 0.482963
v -0.129410 0.005000 0.482963
v -0.129410 0.005000 0.482963
v 0.000000 -0.005000 0.500000
v 0.000000 -0.005000 0.500000
v 0.000000 0.005000 0.500000
v 0.000000 0.005000 0.500000
v 0.129410 -0.005000 0.482963
v 0.129410 -0.005000 0.482963
v 0.129410 0.005000 0.482963
v 0.129410 0.005000 0.482963
v 0.250000 -0.005000 0.433013
v 0.250000 -0.005000 0.433013
v 0.250000 0.005000 0.433013
v 0.250000 0.005000 0.433013
v 0.353553 -0.005000 0.353553
v 0.353553 -0.005000 0.353553
v 0.353553 0.005000 0.353553
v 0.353553 0.005000 0.353553
v 0.433013 -0.005000 0.250000
v 0.433013 -0.005000 0.250000
v 0.433013 0.005000 0.250000
v 0.433013 0.005000 0.250000
v 0.482963 -0.005000 0.129410
v 0.482963 -0.005000 0.129410
v 0.482963 0.005000 0.129410
v 0.482963 0.005000 0.129410
vt 0.017037 0.629410
vt 0.000000 0.500000
vt 0.500000 0.500000
vt 0.041667 0.000000
vt 0.041667 1.000000
vt 0.000000 1.000000
vt 0.000000 0.000000
vt 0.982963 0.629410
vt 1.000000 0.500000
vt 0.066987 0.750000
vt 0.083333 0.000000
vt 0.083333 1.000000
vt 0.933013 0.750000
vt 0.146447 0.853553
vt 0.125000 0.000000
vt 0.125000 1.000000
vt 0.853553 0.853553
vt 0.250000 0.933013
vt 0.166667 0.000000
vt 0.166667 1.000000
vt 0.750000 0.933013
vt 0.370590 0.982963
vt 0.208333 0.000000
vt 0.208333 1.000000
vt 0.629410 0.982963
vt 0.500000 1.000000
vt 0.250000 0.000000
vt 0.250000 1.000000
vt 0.291667 0.000000
vt 0.291667 1.000000
vt 0.333333 0.000000
vt 0.333333 1.000000
vt 0.375000 0.000000
vt 0.375000 1.000000
vt 0.416667 0.000000
vt 0.416667 1.000000
vt 0.458333 0.000000
vt 0.458333 1.000000
vt 0.500000 0.000000
vt 0.982963 0.370590
vt 0.541667 0.000000
vt 0.541667 1.000000
vt 0.017037 0.370590
vt 0.933013 0.250000
vt 0.583333 0.000000
vt 0.583333 1.000000
vt 0.066987 0.250000
vt 0.853553 0.146447
vt 0.625000 0.000000
vt 0.625000 1.000000
vt 0.146447 0.146447
vt 0.750000 0.066987
vt 0.666667 0.000000
vt 0.666667 1.000000
vt 0.250000 0.066987
vt 0.629410 0.017037
vt 0.708333 0.000000
vt 0.708333 1.000000
vt 0.370590 0.017037
vt 0.750000 0.000000
vt 0.750000 1.000000
vt 0.791667 0.000000
vt 0.791667 1.000000
vt 0.833333 0.000000
vt 0.833333 1.000000
vt 0.875000 0.000000
vt 0.875000 1.000000
vt 0.916667 0.000000
vt 0.916667 1.000000
vt 0.958333 0.000000
vt 0.958333 1.000000
vt 1.000000 0.000000
vt 1.000000 1.000000
vn 0.000000 -1.000000 -0.000000
vn 0.991400 0.000000 -0.130500
vn 0.000000 1.000000 0.000000
vn 0.923900 0.000000 -0.382700
vn 0.793400 0.000000 -0.608800
vn 0.608800 0.000000 -0.793400
vn 0.382700 0.000000 -0.923900
vn 0.130500 0.000000 -0.991400
vn -0.130500 0.000000 -0.991400
vn -0.382700 0.000000 -0.923900
vn -0.608800 0.000000 -0.793400
vn -0.793400 0.000000 -0.608800
vn -0.923900 0.000000 -0.382700
vn -0.991400 0.000000 -0.130500
vn -0.991400 -0.000000 0.130500
vn -0.923900 0.000000 0.382700
vn -0.793400 0.000000 0.608800
vn -0.608800 0.000000 0.793400
vn -0.382700 0.000000 0.923900
vn -0.130500 0.000000 0.991400
vn 0.130500 0.000000 0.991400
vn 0.382700 0.000000 0.923900
vn 0.608800 0.000000 0.793400
vn 0.793400 0.000000 0.608800
vn 0.923900 0.000000 0.382700
vn 0.991400 0.000000 0.130500
usemtl None
s off
f 1/1/1 2/2/1 3/3/1
f 4/4/2 5/5/2 6/6/2 7/7/2
f 8/8/3 9/3/3 10/9/3
f 11/10/1 1/1/1 3/3/1
f 12/11/4 13/12/4 5/5/4 4/4/4
f 14/13/3 9/3/3 8/8/3
f 15/14/1 11/10/1 3/3/1
f 16/15/5 17/16/5 13/12/5 12/11/5
f 18/17/3 9/3/3 14/13/3
f 19/18/1 15/14/1 3/3/1
f 20/19/6 21/20/6 17/16/6 16/15/6
f 22/21/3 9/3/3 18/17/3
f 23/22/1 19/18/1 3/3/1
f 24/23/7 25/24/7 21/20/7 20/19/7
f 26/25/3 9/3/3 22/21/3
f 27/26/1 23/22/1 3/3/1
f 28/27/8 29/28/8 25/24/8 24/23/8
f 30/26/3 9/3/3 26/25/3
f 31/25/1 27/26/1 3/3/1
f 32/29/9 33/30/9 29/28/9 28/27/9
f 34/22/3 9/3/3 30/26/3
f 35/21/1 31/25/1 3/3/1
f 36/31/10 37/32/10 33/30/10 32/29/10
f 38/18/3 9/3/3 34/22/3
f 39/17/1 35/21/1 3/3/1
f 40/33/11 41/34/11 37/32/11 36/31/11
f 42/14/3 9/3/3 38/18/3
f 43/13/1 39/17/1 3/3/1
f 44/35/12 45/36/12 41/34/12 40/33/12
f 46/10/3 9/3/3 42/14/3
f 47/8/1 43/13/1 3/3/1
f 48/37/13 49/38/13 45/36/13 44/35/13
f 50/1/3 9/3/3 46/10/3
f 51/9/1 47/8/1 3/3/1
f 52/39/14 53/26/14 49/38/14 48/37/14
f 54/2/3 9/3/3 50/1/3
f 55/40/1 51/9/1 3/3/1
f 56/41/15 57/42/15 53/26/15 52/39/15
f 58/43/3 9/3/3 54/2/3
f 59/44/1 55/40/1 3/3/1
f 60/45/16 61/46/16 57/42/16 56/41/16
f 62/47/3 9/3/3 58/43/3
f 63/48/1 59/44/1 3/3/1
f 64/49/17 65/50/17 61/46/17 60/45/17
f 66/51/3 9/3/3 62/47/3
f 67/52/1 63/48/1 3/3/1
f 68/53/18 69/54/18 65/50/18 64/49/18
f 70/55/3 9/3/3 66/51/3
f 71/56/1 67/52/1 3/3/1
f 72/57/19 73/58/19 69/54/19 68/53/19
f 74/59/3 9/3/3 70/55/3
f 75/39/1 71/56/1 3/3/1
f 76/60/20 77/61/20 73/58/20 72/57/20
f 78/39/3 9/3/3 74/59/3
f 79/59/1 75/39/1 3/3/1
f 80/62/21 81/63/21 77/61/21 76/60/21
f 82/56/3 9/3/3 78/39/3
f 83/55/1 79/59/1 3/3/1
f 84/64/22 85/65/22 81/63/22 80/62/22
f 86/52/3 9/3/3 82/56/3
f 87/51/1 83/55/1 3/3/1
f 88/66/23 89/67/23 85/65/23 84/64/23
f 90/48/3 9/3/3 86/52/3
f 91/47/1 87/51/1 3/3/1
f 92/68/24 93/69/24 89/67/24 88/66/24
f 94/44/3 9/3/3 90/48/3
f 95/43/1 91/47/1 3/3/1
f 96/70/25 97/71/25 93/69/25 92/68/25
f 98/40/3 9/3/3 94/44/3
f 2/2/1 95/43/1 3/3/1
f 7/72/26 6/73/26 97/71/26 96/70/26
f 10/9/3 9/3/3 98/40/3
