# Blender v2.77 (sub 0) OBJ File: ''
# www.blender.org
mtllib pointer.mtl
o pointer
v -0.500000 -0.500000 1.000000
v 0.500000 -0.500000 1.000000
v 0.500000 0.500000 1.000000
v -0.500000 0.500000 1.000000
v 0.000000 0.000000 -1.000000
vt 0.0000 0.0000
vt 1.0000 0.0000
vt 1.0000 1.0000
vt 0.0000 1.0000
vt 0.0000 0.0000
vt 0.5000 1.0000
vt 0.0000 0.0000
vt 1.0000 0.0000
vt 1.0000 0.0000
vt 0.0000 0.0000
vt 1.0000 0.0000
vn 0.0356 0.0654 0.9972
vn -0.0654 0.0356 0.9972
vn -0.0356 -0.0654 0.9972
vn 0.0654 -0.0356 0.9972
vn 0.9532 -0.0457 -0.2989
vn 0.9600 0.0679 -0.2715
vn 0.9701 0.0000 -0.2425
vn -0.0457 -0.9532 -0.2989
vn 0.0679 -0.9600 -0.2715
vn 0.0000 -0.9701 -0.2425
vn -0.9532 0.0457 -0.2989
vn -0.9600 -0.0679 -0.2715
vn -0.9701 0.0000 -0.2425
vn 0.0457 0.9532 -0.2989
vn -0.0679 0.9600 -0.2715
vn 0.0000 0.9701 -0.2425
usemtl None
s off
f 1/1/1 2/2/2 3/3/3 4/4/4
f 3/5/5 2/2/6 5/6/7
f 2/7/8 1/8/9 5/6/10
f 1/1/11 4/9/12 5/6/13
f 4/10/14 3/11/15 5/6/16
