# Blender v2.77 (sub 0) OBJ File: ''
# www.blender.org
mtllib pyramid.mtl
o pyramid
v -0.100000 -0.100000 -0.200000
v 0.100000 -0.100000 -0.200000
v 0.100000 0.100000 -0.200000
v -0.100000 0.100000 -0.200000
v 0.000000 -0.000000 0.200000
vt 0.0000 1.0000
vt 1.0000 1.0000
vt 1.0000 0.0000
vt 0.0000 0.0000
vt 0.5000 1.0000
vt 0.0000 0.0000
vt 1.0000 0.0000
vt 0.0000 0.0000
vt 1.0000 0.0000
vt 1.0000 0.0000
vt 0.0000 0.0000
vn 0.1926 0.0568 0.9796
vn -0.0568 0.1926 0.9796
vn -0.1926 -0.0568 0.9796
vn 0.0568 -0.1926 0.9796
vn -0.9701 0.0000 -0.2425
vn -0.9621 -0.1949 -0.1907
vn -0.9936 0.0930 -0.0649
vn 0.0000 -0.9701 -0.2425
vn 0.1949 -0.9621 -0.1907
vn -0.0930 -0.9936 -0.0649
vn 0.9701 0.0000 -0.2425
vn 0.9621 0.1949 -0.1907
vn 0.9936 -0.0930 -0.0649
vn 0.0000 0.9701 -0.2425
vn -0.1949 0.9621 -0.1907
vn 0.0930 0.9936 -0.0649
usemtl None
s off
f 1/1/1 2/2/2 3/3/3 4/4/4
f 5/5/5 3/3/6 2/6/7
f 5/5/8 4/7/9 3/8/10
f 5/5/11 1/9/12 4/4/13
f 5/5/14 2/10/15 1/11/16
