# Blender v2.76 (sub 0) OBJ File: ''
# www.blender.org
mtllib sphere.mtl
o Sphere
v -0.442863 0.864188 0.238856
v -0.295242 0.955423 0.000000
v -0.525731 0.850651 0.000000
v -0.162460 0.951056 0.262866
v 0.000000 1.000000 0.000000
v -0.309017 0.809017 0.500000
v 0.162460 0.951056 0.262866
v 0.295242 0.955423 0.000000
v 0.000000 0.850651 0.525731
v -0.147621 0.681718 0.716567
v 0.442863 0.864188 0.238856
v 0.525731 0.850651 0.000000
v 0.309017 0.809017 0.500000
v 0.147621 0.681718 0.716567
v 0.000000 0.525731 0.850651
v 0.681718 0.716567 0.147621
v 0.587785 0.688191 0.425326
v 0.809017 0.500000 0.309017
v 0.688191 0.425325 0.587785
v 0.864188 0.238856 0.442863
v 0.425325 0.587785 0.688191
v 0.716567 0.147621 0.681718
v 0.850651 -0.000000 0.525731
v 0.500000 0.309017 0.809017
v 0.238856 0.442863 0.864188
v 0.681718 0.716567 -0.147621
v 0.850651 0.525731 0.000000
v 0.809017 0.500000 -0.309017
v 0.951056 0.262866 -0.162460
v 0.864188 0.238856 -0.442863
v 0.951056 0.262866 0.162460
v 0.955423 0.000000 -0.295242
v 0.850651 0.000000 -0.525731
v 1.000000 0.000000 0.000000
v 0.955423 -0.000000 0.295242
v 0.442863 0.864188 -0.238856
v 0.587785 0.688191 -0.425325
v 0.309017 0.809017 -0.500000
v 0.425325 0.587785 -0.688191
v 0.147621 0.681718 -0.716567
v 0.688191 0.425325 -0.587785
v 0.238856 0.442863 -0.864188
v 0.000000 0.525731 -0.850651
v 0.500000 0.309017 -0.809017
v 0.716567 0.147621 -0.681718
v 0.162460 0.951057 -0.262865
v -0.162460 0.951057 -0.262865
v 0.000000 0.850651 -0.525731
v -0.442863 0.864188 -0.238856
v -0.309017 0.809017 -0.500000
v -0.147621 0.681718 -0.716567
v -0.238856 0.442863 -0.864188
v -0.425325 0.587785 -0.688191
v -0.500000 0.309017 -0.809017
v -0.587785 0.688191 -0.425325
v -0.688191 0.425325 -0.587785
v -0.716567 0.147621 -0.681718
v -0.681718 0.716567 -0.147621
v -0.809017 0.500000 -0.309017
v -0.864188 0.238856 -0.442863
v -0.850651 0.000000 -0.525731
v -0.955423 0.000000 -0.295242
v -0.951056 0.262866 -0.162460
v -1.000000 0.000000 0.000000
v -0.850651 0.525731 0.000000
v -0.951056 0.262866 0.162460
v -0.955423 -0.000000 0.295242
v -0.681718 0.716567 0.147621
v -0.809017 0.500000 0.309017
v -0.864188 0.238856 0.442863
v -0.850651 -0.000000 0.525731
v -0.587785 0.688191 0.425326
v -0.425325 0.587785 0.688191
v -0.688191 0.425325 0.587785
v -0.238856 0.442863 0.864188
v -0.500000 0.309017 0.809017
v -0.716567 0.147621 0.681718
v 0.442863 -0.864188 0.238856
v 0.295242 -0.955423 -0.000000
v 0.525731 -0.850651 -0.000000
v 0.162460 -0.951057 0.262865
v 0.000000 -1.000000 -0.000000
v 0.309017 -0.809017 0.500000
v -0.162460 -0.951057 0.262865
v -0.295242 -0.955423 -0.000000
v 0.000000 -0.850651 0.525731
v 0.147621 -0.681718 0.716567
v -0.442863 -0.864188 0.238856
v -0.525731 -0.850651 -0.000000
v -0.309017 -0.809017 0.500000
v -0.147621 -0.681718 0.716567
v 0.000000 -0.525731 0.850651
v 0.716567 -0.147621 0.681718
v 0.864188 -0.238856 0.442863
v 0.688191 -0.425325 0.587785
v 0.809017 -0.500000 0.309017
v 0.500000 -0.309017 0.809017
v 0.587785 -0.688191 0.425325
v 0.681718 -0.716567 0.147621
v 0.425325 -0.587785 0.688191
v 0.238856 -0.442863 0.864188
v 0.951056 -0.262866 0.162460
v 0.951056 -0.262866 -0.162460
v 0.850651 -0.525731 -0.000000
v 0.864188 -0.238856 -0.442863
v 0.809017 -0.500000 -0.309017
v 0.681718 -0.716567 -0.147621
v 0.716567 -0.147621 -0.681718
v 0.688191 -0.425325 -0.587785
v 0.500000 -0.309017 -0.809017
v 0.425325 -0.587785 -0.688191
v 0.238856 -0.442863 -0.864188
v 0.587785 -0.688191 -0.425326
v 0.147621 -0.681718 -0.716567
v 0.000000 -0.525731 -0.850651
v 0.309017 -0.809017 -0.500000
v 0.442863 -0.864188 -0.238856
v -0.147621 -0.681718 -0.716567
v 0.000000 -0.850651 -0.525731
v -0.309017 -0.809017 -0.500000
v -0.162460 -0.951056 -0.262866
v -0.442863 -0.864188 -0.238856
v 0.162460 -0.951056 -0.262866
v -0.238856 -0.442863 -0.864188
v -0.425325 -0.587785 -0.688191
v -0.500000 -0.309017 -0.809017
v -0.688191 -0.425325 -0.587785
v -0.716567 -0.147621 -0.681718
v -0.587785 -0.688191 -0.425326
v -0.864188 -0.238856 -0.442863
v -0.809017 -0.500000 -0.309017
v -0.681718 -0.716567 -0.147621
v -0.951056 -0.262866 -0.162460
v -0.951056 -0.262866 0.162460
v -0.850651 -0.525731 -0.000000
v -0.864188 -0.238856 0.442863
v -0.809017 -0.500000 0.309017
v -0.681718 -0.716567 0.147621
v -0.716567 -0.147621 0.681718
v -0.688191 -0.425325 0.587785
v -0.500000 -0.309017 0.809017
v -0.425325 -0.587785 0.688191
v -0.238856 -0.442863 0.864188
v -0.587785 -0.688191 0.425325
v 0.000000 -0.295242 0.955423
v -0.262866 -0.162460 0.951056
v 0.000000 -0.000000 1.000000
v -0.525731 -0.000000 0.850651
v -0.262866 0.162460 0.951056
v 0.000000 0.295242 0.955423
v 0.525731 -0.000000 0.850651
v 0.262866 -0.162460 0.951056
v 0.262866 0.162460 0.951056
v 0.000000 0.295242 -0.955423
v 0.262866 0.162460 -0.951056
v 0.000000 0.000000 -1.000000
v 0.262866 -0.162460 -0.951056
v 0.000000 -0.295242 -0.955423
v 0.525731 0.000000 -0.850651
v -0.262866 0.162460 -0.951056
v -0.525731 0.000000 -0.850651
v -0.262866 -0.162460 -0.951056
vt 0.125000 0.750000
vt 0.250000 1.000000
vt 0.000000 1.000000
vt 0.375000 0.750000
vt 0.500000 1.000000
vt 0.250000 0.500000
vt 0.625000 0.750000
vt 0.750000 1.000000
vt 0.500000 0.500000
vt 0.375000 0.250000
vt 0.875000 0.750000
vt 1.000000 1.000000
vt 0.750000 0.500000
vt 0.625000 0.250000
vt 0.500000 0.000000
vn -0.412100 0.906500 0.091600
vn -0.148700 0.984600 0.091500
vn -0.304900 0.937200 0.169600
vn -0.304600 0.888300 0.343800
vn 0.148700 0.984600 0.091500
vn 0.000000 0.983100 0.183000
vn 0.000000 0.934200 0.356800
vn -0.155700 0.886900 0.435000
vn -0.156000 0.796400 0.584300
vn 0.412100 0.906500 0.091600
vn 0.304900 0.937200 0.169600
vn 0.304600 0.888300 0.343800
vn 0.155700 0.886900 0.435000
vn 0.156000 0.796400 0.584300
vn 0.000000 0.748800 0.662800
vn 0.000000 0.651900 0.758300
vn 0.560300 0.814900 0.148200
vn 0.704900 0.640900 0.303900
vn 0.579200 0.767600 0.274400
vn 0.452600 0.796800 0.400300
vn 0.796800 0.400300 0.452600
vn 0.703800 0.548100 0.451900
vn 0.577400 0.577300 0.577400
vn 0.451900 0.703800 0.548100
vn 0.303900 0.704900 0.640900
vn 0.814900 0.148200 0.560300
vn 0.767600 0.274400 0.579200
vn 0.640900 0.303900 0.704900
vn 0.548100 0.451900 0.703800
vn 0.400300 0.452600 0.796800
vn 0.274400 0.579200 0.767600
vn 0.148200 0.560300 0.814900
vn 0.651900 0.758300 0.000000
vn 0.796400 0.584300 -0.156000
vn 0.748800 0.662800 0.000000
vn 0.796400 0.584300 0.156000
vn 0.888300 0.343800 -0.304600
vn 0.886900 0.435000 -0.155700
vn 0.934200 0.356800 0.000000
vn 0.886900 0.435000 0.155700
vn 0.888300 0.343800 0.304600
vn 0.906500 0.091600 -0.412100
vn 0.937200 0.169600 -0.304900
vn 0.984600 0.091500 -0.148700
vn 0.983100 0.183000 0.000000
vn 0.984600 0.091500 0.148700
vn 0.937200 0.169600 0.304900
vn 0.906500 0.091600 0.412100
vn 0.560300 0.814900 -0.148200
vn 0.452600 0.796800 -0.400300
vn 0.579200 0.767600 -0.274400
vn 0.704900 0.640900 -0.303900
vn 0.303900 0.704900 -0.640900
vn 0.451900 0.703800 -0.548100
vn 0.577400 0.577400 -0.577400
vn 0.703800 0.548100 -0.451900
vn 0.796800 0.400300 -0.452600
vn 0.148200 0.560300 -0.814900
vn 0.274400 0.579200 -0.767600
vn 0.400300 0.452600 -0.796800
vn 0.548100 0.451900 -0.703800
vn 0.640900 0.303900 -0.704900
vn 0.767600 0.274400 -0.579200
vn 0.814900 0.148200 -0.560300
vn 0.412100 0.906500 -0.091600
vn 0.148700 0.984600 -0.091500
vn 0.304900 0.937200 -0.169600
vn 0.304600 0.888300 -0.343800
vn -0.148700 0.984600 -0.091500
vn 0.000000 0.983100 -0.183000
vn 0.000000 0.934200 -0.356800
vn 0.155700 0.886900 -0.435000
vn 0.156000 0.796400 -0.584300
vn -0.412100 0.906500 -0.091600
vn -0.304900 0.937200 -0.169600
vn -0.304600 0.888300 -0.343800
vn -0.155700 0.886900 -0.435000
vn -0.156000 0.796400 -0.584300
vn 0.000000 0.748800 -0.662800
vn 0.000000 0.651900 -0.758300
vn -0.148200 0.560300 -0.814900
vn -0.303900 0.704900 -0.640900
vn -0.274400 0.579200 -0.767600
vn -0.400300 0.452600 -0.796800
vn -0.452600 0.796800 -0.400300
vn -0.451900 0.703800 -0.548100
vn -0.577400 0.577400 -0.577400
vn -0.548100 0.451900 -0.703800
vn -0.640900 0.303900 -0.704900
vn -0.560300 0.814900 -0.148200
vn -0.579200 0.767600 -0.274400
vn -0.704900 0.640900 -0.303900
vn -0.703800 0.548100 -0.451900
vn -0.796800 0.400300 -0.452600
vn -0.767600 0.274400 -0.579200
vn -0.814900 0.148200 -0.560300
vn -0.906500 0.091600 -0.412100
vn -0.888300 0.343800 -0.304600
vn -0.937200 0.169600 -0.304900
vn -0.984600 0.091500 -0.148700
vn -0.796400 0.584300 -0.156000
vn -0.886900 0.435000 -0.155700
vn -0.934200 0.356800 0.000000
vn -0.983100 0.183000 0.000000
vn -0.984600 0.091500 0.148700
vn -0.651900 0.758300 0.000000
vn -0.748800 0.662800 0.000000
vn -0.796400 0.584300 0.156000
vn -0.886900 0.435000 0.155700
vn -0.888300 0.343800 0.304600
vn -0.937200 0.169600 0.304900
vn -0.906500 0.091600 0.412100
vn -0.560300 0.814900 0.148200
vn -0.452600 0.796800 0.400300
vn -0.579200 0.767600 0.274400
vn -0.704900 0.640900 0.303900
vn -0.303900 0.704900 0.640900
vn -0.451900 0.703800 0.548100
vn -0.577400 0.577300 0.577400
vn -0.703800 0.548100 0.451900
vn -0.796800 0.400300 0.452600
vn -0.148200 0.560300 0.814900
vn -0.274400 0.579200 0.767600
vn -0.400300 0.452600 0.796800
vn -0.548100 0.451900 0.703800
vn -0.640900 0.303900 0.704900
vn -0.767600 0.274400 0.579200
vn -0.814900 0.148200 0.560300
vn 0.412100 -0.906500 0.091600
vn 0.148700 -0.984600 0.091500
vn 0.304900 -0.937200 0.169600
vn 0.304600 -0.888300 0.343800
vn -0.148700 -0.984600 0.091500
vn 0.000000 -0.983100 0.183000
vn 0.000000 -0.934200 0.356800
vn 0.155700 -0.886900 0.435000
vn 0.156000 -0.796400 0.584300
vn -0.412100 -0.906500 0.091600
vn -0.304900 -0.937200 0.169600
vn -0.304600 -0.888300 0.343800
vn -0.155700 -0.886900 0.435000
vn -0.156000 -0.796400 0.584300
vn 0.000000 -0.748800 0.662800
vn 0.000000 -0.651900 0.758300
vn 0.814900 -0.148200 0.560300
vn 0.796800 -0.400300 0.452600
vn 0.767600 -0.274400 0.579200
vn 0.640900 -0.303900 0.704900
vn 0.704900 -0.640900 0.303900
vn 0.703800 -0.548100 0.451900
vn 0.577400 -0.577400 0.577400
vn 0.548100 -0.451900 0.703800
vn 0.400300 -0.452600 0.796800
vn 0.560300 -0.814900 0.148200
vn 0.579200 -0.767600 0.274400
vn 0.452600 -0.796800 0.400300
vn 0.451900 -0.703800 0.548100
vn 0.303900 -0.704900 0.640900
vn 0.274400 -0.579200 0.767600
vn 0.148200 -0.560300 0.814900
vn 0.906500 -0.091600 0.412100
vn 0.984600 -0.091500 0.148700
vn 0.937200 -0.169600 0.304900
vn 0.888300 -0.343800 0.304600
vn 0.984600 -0.091500 -0.148700
vn 0.983100 -0.183000 -0.000000
vn 0.934200 -0.356800 0.000000
vn 0.886900 -0.435000 0.155700
vn 0.796400 -0.584300 0.156000
vn 0.906500 -0.091600 -0.412100
vn 0.937200 -0.169600 -0.304900
vn 0.888300 -0.343800 -0.304600
vn 0.886900 -0.435000 -0.155700
vn 0.796400 -0.584300 -0.156000
vn 0.748800 -0.662800 0.000000
vn 0.651900 -0.758300 0.000000
vn 0.814900 -0.148200 -0.560300
vn 0.640900 -0.303900 -0.704900
vn 0.767600 -0.274400 -0.579200
vn 0.796800 -0.400300 -0.452600
vn 0.400300 -0.452600 -0.796800
vn 0.548100 -0.451900 -0.703800
vn 0.577400 -0.577400 -0.577400
vn 0.703800 -0.548100 -0.451900
vn 0.704900 -0.640900 -0.303900
vn 0.148200 -0.560300 -0.814900
vn 0.274400 -0.579200 -0.767600
vn 0.303900 -0.704900 -0.640900
vn 0.451900 -0.703800 -0.548100
vn 0.452600 -0.796800 -0.400300
vn 0.579200 -0.767600 -0.274400
vn 0.560300 -0.814900 -0.148200
vn 0.000000 -0.651900 -0.758300
vn -0.156000 -0.796400 -0.584300
vn 0.000000 -0.748800 -0.662800
vn 0.156000 -0.796400 -0.584300
vn -0.304600 -0.888300 -0.343800
vn -0.155700 -0.886900 -0.435000
vn 0.000000 -0.934200 -0.356800
vn 0.155700 -0.886900 -0.435000
vn 0.304600 -0.888300 -0.343800
vn -0.412100 -0.906500 -0.091600
vn -0.304900 -0.937200 -0.169600
vn -0.148700 -0.984600 -0.091500
vn 0.000000 -0.983100 -0.183000
vn 0.148700 -0.984600 -0.091500
vn 0.304900 -0.937200 -0.169600
vn 0.412100 -0.906500 -0.091600
vn -0.148200 -0.560300 -0.814900
vn -0.400300 -0.452600 -0.796800
vn -0.274400 -0.579200 -0.767600
vn -0.303900 -0.704900 -0.640900
vn -0.640900 -0.303900 -0.704900
vn -0.548100 -0.451900 -0.703800
vn -0.577400 -0.577400 -0.577400
vn -0.451900 -0.703800 -0.548100
vn -0.452600 -0.796800 -0.400300
vn -0.814900 -0.148200 -0.560300
vn -0.767600 -0.274400 -0.579200
vn -0.796800 -0.400300 -0.452600
vn -0.703800 -0.548100 -0.451900
vn -0.704900 -0.640900 -0.303900
vn -0.579200 -0.767600 -0.274400
vn -0.560300 -0.814900 -0.148200
vn -0.906500 -0.091600 -0.412100
vn -0.984600 -0.091500 -0.148700
vn -0.937200 -0.169600 -0.304900
vn -0.888300 -0.343800 -0.304600
vn -0.984600 -0.091500 0.148700
vn -0.983100 -0.183000 -0.000000
vn -0.934200 -0.356800 0.000000
vn -0.886900 -0.435000 -0.155700
vn -0.796400 -0.584300 -0.156000
vn -0.906500 -0.091600 0.412100
vn -0.937200 -0.169600 0.304900
vn -0.888300 -0.343800 0.304600
vn -0.886900 -0.435000 0.155700
vn -0.796400 -0.584300 0.156000
vn -0.748800 -0.662800 0.000000
vn -0.651900 -0.758300 0.000000
vn -0.814900 -0.148200 0.560300
vn -0.640900 -0.303900 0.704900
vn -0.767600 -0.274400 0.579200
vn -0.796800 -0.400300 0.452600
vn -0.400300 -0.452600 0.796800
vn -0.548100 -0.451900 0.703800
vn -0.577400 -0.577400 0.577400
vn -0.703800 -0.548100 0.451900
vn -0.704900 -0.640900 0.303900
vn -0.148200 -0.560300 0.814900
vn -0.274400 -0.579200 0.767600
vn -0.303900 -0.704900 0.640900
vn -0.451900 -0.703800 0.548100
vn -0.452600 -0.796800 0.400300
vn -0.579200 -0.767600 0.274400
vn -0.560300 -0.814900 0.148200
vn -0.091600 -0.412100 0.906500
vn -0.343800 -0.304600 0.888300
vn -0.169600 -0.304900 0.937200
vn -0.091500 -0.148700 0.984600
vn -0.584300 -0.156000 0.796400
vn -0.435000 -0.155700 0.886900
vn -0.356800 0.000000 0.934200
vn -0.183000 0.000000 0.983100
vn -0.091500 0.148700 0.984600
vn -0.758300 0.000000 0.651900
vn -0.662800 0.000000 0.748800
vn -0.584300 0.156000 0.796400
vn -0.435000 0.155700 0.886900
vn -0.343800 0.304600 0.888300
vn -0.169600 0.304900 0.937200
vn -0.091600 0.412100 0.906500
vn 0.758300 0.000000 0.651900
vn 0.584300 -0.156000 0.796400
vn 0.662800 0.000000 0.748800
vn 0.584300 0.156000 0.796400
vn 0.343800 -0.304600 0.888300
vn 0.435000 -0.155700 0.886900
vn 0.356800 0.000000 0.934200
vn 0.435000 0.155700 0.886900
vn 0.343800 0.304600 0.888300
vn 0.091600 -0.412100 0.906500
vn 0.169600 -0.304900 0.937200
vn 0.091500 -0.148700 0.984600
vn 0.183000 0.000000 0.983100
vn 0.091500 0.148700 0.984600
vn 0.169600 0.304900 0.937200
vn 0.091600 0.412100 0.906500
vn 0.091600 0.412100 -0.906500
vn 0.091500 0.148700 -0.984600
vn 0.169600 0.304900 -0.937200
vn 0.343800 0.304600 -0.888300
vn 0.091500 -0.148700 -0.984600
vn 0.183000 0.000000 -0.983100
vn 0.356800 0.000000 -0.934200
vn 0.435000 0.155700 -0.886900
vn 0.584300 0.156000 -0.796400
vn 0.091600 -0.412100 -0.906500
vn 0.169600 -0.304900 -0.937200
vn 0.343800 -0.304600 -0.888300
vn 0.435000 -0.155700 -0.886900
vn 0.584300 -0.156000 -0.796400
vn 0.662800 0.000000 -0.748800
vn 0.758300 0.000000 -0.651900
vn -0.091600 0.412100 -0.906500
vn -0.343800 0.304600 -0.888300
vn -0.169600 0.304900 -0.937200
vn -0.091500 0.148700 -0.984600
vn -0.584300 0.156000 -0.796400
vn -0.435000 0.155700 -0.886900
vn -0.356800 0.000000 -0.934200
vn -0.183000 0.000000 -0.983100
vn -0.091500 -0.148700 -0.984600
vn -0.758300 0.000000 -0.651900
vn -0.662800 0.000000 -0.748800
vn -0.584300 -0.156000 -0.796400
vn -0.435000 -0.155700 -0.886900
vn -0.343800 -0.304600 -0.888300
vn -0.169600 -0.304900 -0.937200
vn -0.091600 -0.412100 -0.906500
usemtl None
s off
f 1/1/1 2/2/1 3/3/1
f 4/4/2 5/5/2 2/2/2
f 2/2/3 1/1/3 4/4/3
f 6/6/4 4/4/4 1/1/4
f 7/7/5 8/8/5 5/5/5
f 5/5/6 4/4/6 7/7/6
f 9/9/7 7/7/7 4/4/7
f 4/4/8 6/6/8 9/9/8
f 10/10/9 9/9/9 6/6/9
f 11/11/10 12/12/10 8/8/10
f 8/8/11 7/7/11 11/11/11
f 13/13/12 11/11/12 7/7/12
f 7/7/13 9/9/13 13/13/13
f 14/14/14 13/13/14 9/9/14
f 9/9/15 10/10/15 14/14/15
f 15/15/16 14/14/16 10/10/16
f 11/1/17 16/2/17 12/3/17
f 17/4/18 18/5/18 16/2/18
f 16/2/19 11/1/19 17/4/19
f 13/6/20 17/4/20 11/1/20
f 19/7/21 20/8/21 18/5/21
f 18/5/22 17/4/22 19/7/22
f 21/9/23 19/7/23 17/4/23
f 17/4/24 13/6/24 21/9/24
f 14/10/25 21/9/25 13/6/25
f 22/11/26 23/12/26 20/8/26
f 20/8/27 19/7/27 22/11/27
f 24/13/28 22/11/28 19/7/28
f 19/7/29 21/9/29 24/13/29
f 25/14/30 24/13/30 21/9/30
f 21/9/31 14/10/31 25/14/31
f 15/15/32 25/14/32 14/10/32
f 16/1/33 26/2/33 12/3/33
f 27/4/34 28/5/34 26/2/34
f 26/2/35 16/1/35 27/4/35
f 18/6/36 27/4/36 16/1/36
f 29/7/37 30/8/37 28/5/37
f 28/5/38 27/4/38 29/7/38
f 31/9/39 29/7/39 27/4/39
f 27/4/40 18/6/40 31/9/40
f 20/10/41 31/9/41 18/6/41
f 32/11/42 33/12/42 30/8/42
f 30/8/43 29/7/43 32/11/43
f 34/13/44 32/11/44 29/7/44
f 29/7/45 31/9/45 34/13/45
f 35/14/46 34/13/46 31/9/46
f 31/9/47 20/10/47 35/14/47
f 23/15/48 35/14/48 20/10/48
f 26/1/49 36/2/49 12/3/49
f 37/4/50 38/5/50 36/2/50
f 36/2/51 26/1/51 37/4/51
f 28/6/52 37/4/52 26/1/52
f 39/7/53 40/8/53 38/5/53
f 38/5/54 37/4/54 39/7/54
f 41/9/55 39/7/55 37/4/55
f 37/4/56 28/6/56 41/9/56
f 30/10/57 41/9/57 28/6/57
f 42/11/58 43/12/58 40/8/58
f 40/8/59 39/7/59 42/11/59
f 44/13/60 42/11/60 39/7/60
f 39/7/61 41/9/61 44/13/61
f 45/14/62 44/13/62 41/9/62
f 41/9/63 30/10/63 45/14/63
f 33/15/64 45/14/64 30/10/64
f 36/1/65 8/2/65 12/3/65
f 46/4/66 5/5/66 8/2/66
f 8/2/67 36/1/67 46/4/67
f 38/6/68 46/4/68 36/1/68
f 47/7/69 2/8/69 5/5/69
f 5/5/70 46/4/70 47/7/70
f 48/9/71 47/7/71 46/4/71
f 46/4/72 38/6/72 48/9/72
f 40/10/73 48/9/73 38/6/73
f 49/11/74 3/12/74 2/8/74
f 2/8/75 47/7/75 49/11/75
f 50/13/76 49/11/76 47/7/76
f 47/7/77 48/9/77 50/13/77
f 51/14/78 50/13/78 48/9/78
f 48/9/79 40/10/79 51/14/79
f 43/15/80 51/14/80 40/10/80
f 52/1/81 51/2/81 43/3/81
f 53/4/82 50/5/82 51/2/82
f 51/2/83 52/1/83 53/4/83
f 54/6/84 53/4/84 52/1/84
f 55/7/85 49/8/85 50/5/85
f 50/5/86 53/4/86 55/7/86
f 56/9/87 55/7/87 53/4/87
f 53/4/88 54/6/88 56/9/88
f 57/10/89 56/9/89 54/6/89
f 58/11/90 3/12/90 49/8/90
f 49/8/91 55/7/91 58/11/91
f 59/13/92 58/11/92 55/7/92
f 55/7/93 56/9/93 59/13/93
f 60/14/94 59/13/94 56/9/94
f 56/9/95 57/10/95 60/14/95
f 61/15/96 60/14/96 57/10/96
f 62/1/97 60/2/97 61/3/97
f 63/4/98 59/5/98 60/2/98
f 60/2/99 62/1/99 63/4/99
f 64/6/100 63/4/100 62/1/100
f 65/7/101 58/8/101 59/5/101
f 59/5/102 63/4/102 65/7/102
f 66/9/103 65/7/103 63/4/103
f 63/4/104 64/6/104 66/9/104
f 67/10/105 66/9/105 64/6/105
f 68/11/106 3/12/106 58/8/106
f 58/8/107 65/7/107 68/11/107
f 69/13/108 68/11/108 65/7/108
f 65/7/109 66/9/109 69/13/109
f 70/14/110 69/13/110 66/9/110
f 66/9/111 67/10/111 70/14/111
f 71/15/112 70/14/112 67/10/112
f 68/1/113 1/2/113 3/3/113
f 72/4/114 6/5/114 1/2/114
f 1/2/115 68/1/115 72/4/115
f 69/6/116 72/4/116 68/1/116
f 73/7/117 10/8/117 6/5/117
f 6/5/118 72/4/118 73/7/118
f 74/9/119 73/7/119 72/4/119
f 72/4/120 69/6/120 74/9/120
f 70/10/121 74/9/121 69/6/121
f 75/11/122 15/12/122 10/8/122
f 10/8/123 73/7/123 75/11/123
f 76/13/124 75/11/124 73/7/124
f 73/7/125 74/9/125 76/13/125
f 77/14/126 76/13/126 74/9/126
f 74/9/127 70/10/127 77/14/127
f 71/15/128 77/14/128 70/10/128
f 78/1/129 79/2/129 80/3/129
f 81/4/130 82/5/130 79/2/130
f 79/2/131 78/1/131 81/4/131
f 83/6/132 81/4/132 78/1/132
f 84/7/133 85/8/133 82/5/133
f 82/5/134 81/4/134 84/7/134
f 86/9/135 84/7/135 81/4/135
f 81/4/136 83/6/136 86/9/136
f 87/10/137 86/9/137 83/6/137
f 88/11/138 89/12/138 85/8/138
f 85/8/139 84/7/139 88/11/139
f 90/13/140 88/11/140 84/7/140
f 84/7/141 86/9/141 90/13/141
f 91/14/142 90/13/142 86/9/142
f 86/9/143 87/10/143 91/14/143
f 92/15/144 91/14/144 87/10/144
f 93/1/145 94/2/145 23/3/145
f 95/4/146 96/5/146 94/2/146
f 94/2/147 93/1/147 95/4/147
f 97/6/148 95/4/148 93/1/148
f 98/7/149 99/8/149 96/5/149
f 96/5/150 95/4/150 98/7/150
f 100/9/151 98/7/151 95/4/151
f 95/4/152 97/6/152 100/9/152
f 101/10/153 100/9/153 97/6/153
f 78/11/154 80/12/154 99/8/154
f 99/8/155 98/7/155 78/11/155
f 83/13/156 78/11/156 98/7/156
f 98/7/157 100/9/157 83/13/157
f 87/14/158 83/13/158 100/9/158
f 100/9/159 101/10/159 87/14/159
f 92/15/160 87/14/160 101/10/160
f 94/1/161 35/2/161 23/3/161
f 102/4/162 34/5/162 35/2/162
f 35/2/163 94/1/163 102/4/163
f 96/6/164 102/4/164 94/1/164
f 103/7/165 32/8/165 34/5/165
f 34/5/166 102/4/166 103/7/166
f 104/9/167 103/7/167 102/4/167
f 102/4/168 96/6/168 104/9/168
f 99/10/169 104/9/169 96/6/169
f 105/11/170 33/12/170 32/8/170
f 32/8/171 103/7/171 105/11/171
f 106/13/172 105/11/172 103/7/172
f 103/7/173 104/9/173 106/13/173
f 107/14/174 106/13/174 104/9/174
f 104/9/175 99/10/175 107/14/175
f 80/15/176 107/14/176 99/10/176
f 105/1/177 108/2/177 33/3/177
f 109/4/178 110/5/178 108/2/178
f 108/2/179 105/1/179 109/4/179
f 106/6/180 109/4/180 105/1/180
f 111/7/181 112/8/181 110/5/181
f 110/5/182 109/4/182 111/7/182
f 113/9/183 111/7/183 109/4/183
f 109/4/184 106/6/184 113/9/184
f 107/10/185 113/9/185 106/6/185
f 114/11/186 115/12/186 112/8/186
f 112/8/187 111/7/187 114/11/187
f 116/13/188 114/11/188 111/7/188
f 111/7/189 113/9/189 116/13/189
f 117/14/190 116/13/190 113/9/190
f 113/9/191 107/10/191 117/14/191
f 80/15/192 117/14/192 107/10/192
f 114/1/193 118/2/193 115/3/193
f 119/4/194 120/5/194 118/2/194
f 118/2/195 114/1/195 119/4/195
f 116/6/196 119/4/196 114/1/196
f 121/7/197 122/8/197 120/5/197
f 120/5/198 119/4/198 121/7/198
f 123/9/199 121/7/199 119/4/199
f 119/4/200 116/6/200 123/9/200
f 117/10/201 123/9/201 116/6/201
f 85/11/202 89/12/202 122/8/202
f 122/8/203 121/7/203 85/11/203
f 82/13/204 85/11/204 121/7/204
f 121/7/205 123/9/205 82/13/205
f 79/14/206 82/13/206 123/9/206
f 123/9/207 117/10/207 79/14/207
f 80/15/208 79/14/208 117/10/208
f 118/1/209 124/2/209 115/3/209
f 125/4/210 126/5/210 124/2/210
f 124/2/211 118/1/211 125/4/211
f 120/6/212 125/4/212 118/1/212
f 127/7/213 128/8/213 126/5/213
f 126/5/214 125/4/214 127/7/214
f 129/9/215 127/7/215 125/4/215
f 125/4/216 120/6/216 129/9/216
f 122/10/217 129/9/217 120/6/217
f 130/11/218 61/12/218 128/8/218
f 128/8/219 127/7/219 130/11/219
f 131/13/220 130/11/220 127/7/220
f 127/7/221 129/9/221 131/13/221
f 132/14/222 131/13/222 129/9/222
f 129/9/223 122/10/223 132/14/223
f 89/15/224 132/14/224 122/10/224
f 130/1/225 62/2/225 61/3/225
f 133/4/226 64/5/226 62/2/226
f 62/2/227 130/1/227 133/4/227
f 131/6/228 133/4/228 130/1/228
f 134/7/229 67/8/229 64/5/229
f 64/5/230 133/4/230 134/7/230
f 135/9/231 134/7/231 133/4/231
f 133/4/232 131/6/232 135/9/232
f 132/10/233 135/9/233 131/6/233
f 136/11/234 71/12/234 67/8/234
f 67/8/235 134/7/235 136/11/235
f 137/13/236 136/11/236 134/7/236
f 134/7/237 135/9/237 137/13/237
f 138/14/238 137/13/238 135/9/238
f 135/9/239 132/10/239 138/14/239
f 89/15/240 138/14/240 132/10/240
f 136/1/241 139/2/241 71/3/241
f 140/4/242 141/5/242 139/2/242
f 139/2/243 136/1/243 140/4/243
f 137/6/244 140/4/244 136/1/244
f 142/7/245 143/8/245 141/5/245
f 141/5/246 140/4/246 142/7/246
f 144/9/247 142/7/247 140/4/247
f 140/4/248 137/6/248 144/9/248
f 138/10/249 144/9/249 137/6/249
f 91/11/250 92/12/250 143/8/250
f 143/8/251 142/7/251 91/11/251
f 90/13/252 91/11/252 142/7/252
f 142/7/253 144/9/253 90/13/253
f 88/14/254 90/13/254 144/9/254
f 144/9/255 138/10/255 88/14/255
f 89/15/256 88/14/256 138/10/256
f 145/1/257 143/2/257 92/3/257
f 146/4/258 141/5/258 143/2/258
f 143/2/259 145/1/259 146/4/259
f 147/6/260 146/4/260 145/1/260
f 148/7/261 139/8/261 141/5/261
f 141/5/262 146/4/262 148/7/262
f 149/9/263 148/7/263 146/4/263
f 146/4/264 147/6/264 149/9/264
f 150/10/265 149/9/265 147/6/265
f 77/11/266 71/12/266 139/8/266
f 139/8/267 148/7/267 77/11/267
f 76/13/268 77/11/268 148/7/268
f 148/7/269 149/9/269 76/13/269
f 75/14/270 76/13/270 149/9/270
f 149/9/271 150/10/271 75/14/271
f 15/15/272 75/14/272 150/10/272
f 22/1/273 93/2/273 23/3/273
f 151/4/274 97/5/274 93/2/274
f 93/2/275 22/1/275 151/4/275
f 24/6/276 151/4/276 22/1/276
f 152/7/277 101/8/277 97/5/277
f 97/5/278 151/4/278 152/7/278
f 153/9/279 152/7/279 151/4/279
f 151/4/280 24/6/280 153/9/280
f 25/10/281 153/9/281 24/6/281
f 145/11/282 92/12/282 101/8/282
f 101/8/283 152/7/283 145/11/283
f 147/13/284 145/11/284 152/7/284
f 152/7/285 153/9/285 147/13/285
f 150/14/286 147/13/286 153/9/286
f 153/9/287 25/10/287 150/14/287
f 15/15/288 150/14/288 25/10/288
f 42/1/289 154/2/289 43/3/289
f 155/4/290 156/5/290 154/2/290
f 154/2/291 42/1/291 155/4/291
f 44/6/292 155/4/292 42/1/292
f 157/7/293 158/8/293 156/5/293
f 156/5/294 155/4/294 157/7/294
f 159/9/295 157/7/295 155/4/295
f 155/4/296 44/6/296 159/9/296
f 45/10/297 159/9/297 44/6/297
f 112/11/298 115/12/298 158/8/298
f 158/8/299 157/7/299 112/11/299
f 110/13/300 112/11/300 157/7/300
f 157/7/301 159/9/301 110/13/301
f 108/14/302 110/13/302 159/9/302
f 159/9/303 45/10/303 108/14/303
f 33/15/304 108/14/304 45/10/304
f 154/1/305 52/2/305 43/3/305
f 160/4/306 54/5/306 52/2/306
f 52/2/307 154/1/307 160/4/307
f 156/6/308 160/4/308 154/1/308
f 161/7/309 57/8/309 54/5/309
f 54/5/310 160/4/310 161/7/310
f 162/9/311 161/7/311 160/4/311
f 160/4/312 156/6/312 162/9/312
f 158/10/313 162/9/313 156/6/313
f 128/11/314 61/12/314 57/8/314
f 57/8/315 161/7/315 128/11/315
f 126/13/316 128/11/316 161/7/316
f 161/7/317 162/9/317 126/13/317
f 124/14/318 126/13/318 162/9/318
f 162/9/319 158/10/319 124/14/319
f 115/15/320 124/14/320 158/10/320
