#  ==========================================================================
#  
#  Wavefront OBJ format exported by Red-i Productions' "Riptide Pro"
#     (a commercial plugin for Cinema 4D PC & Mac, R9.6 or later)
#  
#  Red-i Productions
#  http://skinprops.com
#  
#  ==========================================================================
mtllib ring06.mtl
v 2 0 0.1
v 2.2 0 0.1
v 2.2 0 0.1
v 2.2 0 -0.1
v 2.2 0 -0.1
v 2 0 -0.1
v 2 0 -0.1
v 2 0 0.1
v 1.96962 -0.347296 0.1
v 2.16658 -0.382026 0.1
v 2.16658 -0.382026 0.1
v 2.16658 -0.382026 -0.1
v 2.16658 -0.382026 -0.1
v 1.96962 -0.347296 -0.1
v 1.96962 -0.347296 -0.1
v 1.96962 -0.347296 0.1
v 1.87939 -0.68404 0.1
v 2.06732 -0.752444 0.1
v 2.06732 -0.752444 0.1
v 2.06732 -0.752444 -0.1
v 2.06732 -0.752444 -0.1
v 1.87939 -0.68404 -0.1
v 1.87939 -0.68404 -0.1
v 1.87939 -0.68404 0.1
v 1.73205 -1 0.1
v 1.90526 -1.1 0.1
v 1.90526 -1.1 0.1
v 1.90526 -1.1 -0.1
v 1.90526 -1.1 -0.1
v 1.73205 -1 -0.1
v 1.73205 -1 -0.1
v 1.73205 -1 0.1
v 1.53209 -1.28558 0.1
v 1.6853 -1.41413 0.1
v 1.6853 -1.41413 0.1
v 1.6853 -1.41413 -0.1
v 1.6853 -1.41413 -0.1
v 1.53209 -1.28558 -0.1
v 1.53209 -1.28558 -0.1
v 1.53209 -1.28558 0.1
v 1.28558 -1.53209 0.1
v 1.41413 -1.6853 0.1
v 1.41413 -1.6853 0.1
v 1.41413 -1.6853 -0.1
v 1.41413 -1.6853 -0.1
v 1.28558 -1.53209 -0.1
v 1.28558 -1.53209 -0.1
v 1.28558 -1.53209 0.1
v 1 -1.73205 0.1
v 1.1 -1.90526 0.1
v 1.1 -1.90526 0.1
v 1.1 -1.90526 -0.1
v 1.1 -1.90526 -0.1
v 1 -1.73205 -0.1
v 1 -1.73205 -0.1
v 1 -1.73205 0.1
v 0.68404 -1.87939 0.1
v 0.752444 -2.06732 0.1
v 0.752444 -2.06732 0.1
v 0.752444 -2.06732 -0.1
v 0.752444 -2.06732 -0.1
v 0.68404 -1.87939 -0.1
v 0.68404 -1.87939 -0.1
v 0.68404 -1.87939 0.1
v 0.347296 -1.96962 0.1
v 0.382026 -2.16658 0.1
v 0.382026 -2.16658 0.1
v 0.382026 -2.16658 -0.1
v 0.382026 -2.16658 -0.1
v 0.347296 -1.96962 -0.1
v 0.347296 -1.96962 -0.1
v 0.347296 -1.96962 0.1
v 1.22465e-16 -2 0.1
v 1.34711e-16 -2.2 0.1
v 1.34711e-16 -2.2 0.1
v 1.34711e-16 -2.2 -0.1
v 1.34711e-16 -2.2 -0.1
v 1.22465e-16 -2 -0.1
v 1.22465e-16 -2 -0.1
v 1.22465e-16 -2 0.1
v -0.347296 -1.96962 0.1
v -0.382026 -2.16658 0.1
v -0.382026 -2.16658 0.1
v -0.382026 -2.16658 -0.1
v -0.382026 -2.16658 -0.1
v -0.347296 -1.96962 -0.1
v -0.347296 -1.96962 -0.1
v -0.347296 -1.96962 0.1
v -0.68404 -1.87939 0.1
v -0.752444 -2.06732 0.1
v -0.752444 -2.06732 0.1
v -0.752444 -2.06732 -0.1
v -0.752444 -2.06732 -0.1
v -0.68404 -1.87939 -0.1
v -0.68404 -1.87939 -0.1
v -0.68404 -1.87939 0.1
v -1 -1.73205 0.1
v -1.1 -1.90526 0.1
v -1.1 -1.90526 0.1
v -1.1 -1.90526 -0.1
v -1.1 -1.90526 -0.1
v -1 -1.73205 -0.1
v -1 -1.73205 -0.1
v -1 -1.73205 0.1
v -1.28558 -1.53209 0.1
v -1.41413 -1.6853 0.1
v -1.41413 -1.6853 0.1
v -1.41413 -1.6853 -0.1
v -1.41413 -1.6853 -0.1
v -1.28558 -1.53209 -0.1
v -1.28558 -1.53209 -0.1
v -1.28558 -1.53209 0.1
v -1.53209 -1.28558 0.1
v -1.6853 -1.41413 0.1
v -1.6853 -1.41413 0.1
v -1.6853 -1.41413 -0.1
v -1.6853 -1.41413 -0.1
v -1.53209 -1.28558 -0.1
v -1.53209 -1.28558 -0.1
v -1.53209 -1.28558 0.1
v -1.73205 -1 0.1
v -1.90526 -1.1 0.1
v -1.90526 -1.1 0.1
v -1.90526 -1.1 -0.1
v -1.90526 -1.1 -0.1
v -1.73205 -1 -0.1
v -1.73205 -1 -0.1
v -1.73205 -1 0.1
v -1.87939 -0.68404 0.1
v -2.06732 -0.752444 0.1
v -2.06732 -0.752444 0.1
v -2.06732 -0.752444 -0.1
v -2.06732 -0.752444 -0.1
v -1.87939 -0.68404 -0.1
v -1.87939 -0.68404 -0.1
v -1.87939 -0.68404 0.1
v -1.96962 -0.347296 0.1
v -2.16658 -0.382026 0.1
v -2.16658 -0.382026 0.1
v -2.16658 -0.382026 -0.1
v -2.16658 -0.382026 -0.1
v -1.96962 -0.347296 -0.1
v -1.96962 -0.347296 -0.1
v -1.96962 -0.347296 0.1
v -2 -2.44929e-16 0.1
v -2.2 -2.69422e-16 0.1
v -2.2 -2.69422e-16 0.1
v -2.2 -2.69422e-16 -0.1
v -2.2 -2.69422e-16 -0.1
v -2 -2.44929e-16 -0.1
v -2 -2.44929e-16 -0.1
v -2 -2.44929e-16 0.1
v -1.96962 0.347296 0.1
v -2.16658 0.382026 0.1
v -2.16658 0.382026 0.1
v -2.16658 0.382026 -0.1
v -2.16658 0.382026 -0.1
v -1.96962 0.347296 -0.1
v -1.96962 0.347296 -0.1
v -1.96962 0.347296 0.1
v -1.87939 0.68404 0.1
v -2.06732 0.752444 0.1
v -2.06732 0.752444 0.1
v -2.06732 0.752444 -0.1
v -2.06732 0.752444 -0.1
v -1.87939 0.68404 -0.1
v -1.87939 0.68404 -0.1
v -1.87939 0.68404 0.1
v -1.73205 1 0.1
v -1.90526 1.1 0.1
v -1.90526 1.1 0.1
v -1.90526 1.1 -0.1
v -1.90526 1.1 -0.1
v -1.73205 1 -0.1
v -1.73205 1 -0.1
v -1.73205 1 0.1
v -1.53209 1.28558 0.1
v -1.6853 1.41413 0.1
v -1.6853 1.41413 0.1
v -1.6853 1.41413 -0.1
v -1.6853 1.41413 -0.1
v -1.53209 1.28558 -0.1
v -1.53209 1.28558 -0.1
v -1.53209 1.28558 0.1
v -1.28558 1.53209 0.1
v -1.41413 1.6853 0.1
v -1.41413 1.6853 0.1
v -1.41413 1.6853 -0.1
v -1.41413 1.6853 -0.1
v -1.28558 1.53209 -0.1
v -1.28558 1.53209 -0.1
v -1.28558 1.53209 0.1
v -1 1.73205 0.1
v -1.1 1.90526 0.1
v -1.1 1.90526 0.1
v -1.1 1.90526 -0.1
v -1.1 1.90526 -0.1
v -1 1.73205 -0.1
v -1 1.73205 -0.1
v -1 1.73205 0.1
v -0.68404 1.87939 0.1
v -0.752444 2.06732 0.1
v -0.752444 2.06732 0.1
v -0.752444 2.06732 -0.1
v -0.752444 2.06732 -0.1
v -0.68404 1.87939 -0.1
v -0.68404 1.87939 -0.1
v -0.68404 1.87939 0.1
v -0.347296 1.96962 0.1
v -0.382026 2.16658 0.1
v -0.382026 2.16658 0.1
v -0.382026 2.16658 -0.1
v -0.382026 2.16658 -0.1
v -0.347296 1.96962 -0.1
v -0.347296 1.96962 -0.1
v -0.347296 1.96962 0.1
v -3.67394e-16 2 0.1
v -4.04133e-16 2.2 0.1
v -4.04133e-16 2.2 0.1
v -4.04133e-16 2.2 -0.1
v -4.04133e-16 2.2 -0.1
v -3.67394e-16 2 -0.1
v -3.67394e-16 2 -0.1
v -3.67394e-16 2 0.1
v 0.347296 1.96962 0.1
v 0.382026 2.16658 0.1
v 0.382026 2.16658 0.1
v 0.382026 2.16658 -0.1
v 0.382026 2.16658 -0.1
v 0.347296 1.96962 -0.1
v 0.347296 1.96962 -0.1
v 0.347296 1.96962 0.1
v 0.68404 1.87939 0.1
v 0.752444 2.06732 0.1
v 0.752444 2.06732 0.1
v 0.752444 2.06732 -0.1
v 0.752444 2.06732 -0.1
v 0.68404 1.87939 -0.1
v 0.68404 1.87939 -0.1
v 0.68404 1.87939 0.1
v 1 1.73205 0.1
v 1.1 1.90526 0.1
v 1.1 1.90526 0.1
v 1.1 1.90526 -0.1
v 1.1 1.90526 -0.1
v 1 1.73205 -0.1
v 1 1.73205 -0.1
v 1 1.73205 0.1
v 1.28558 1.53209 0.1
v 1.41413 1.6853 0.1
v 1.41413 1.6853 0.1
v 1.41413 1.6853 -0.1
v 1.41413 1.6853 -0.1
v 1.28558 1.53209 -0.1
v 1.28558 1.53209 -0.1
v 1.28558 1.53209 0.1
v 1.53209 1.28558 0.1
v 1.6853 1.41413 0.1
v 1.6853 1.41413 0.1
v 1.6853 1.41413 -0.1
v 1.6853 1.41413 -0.1
v 1.53209 1.28558 -0.1
v 1.53209 1.28558 -0.1
v 1.53209 1.28558 0.1
v 1.73205 1 0.1
v 1.90526 1.1 0.1
v 1.90526 1.1 0.1
v 1.90526 1.1 -0.1
v 1.90526 1.1 -0.1
v 1.73205 1 -0.1
v 1.73205 1 -0.1
v 1.73205 1 0.1
v 1.87939 0.68404 0.1
v 2.06732 0.752444 0.1
v 2.06732 0.752444 0.1
v 2.06732 0.752444 -0.1
v 2.06732 0.752444 -0.1
v 1.87939 0.68404 -0.1
v 1.87939 0.68404 -0.1
v 1.87939 0.68404 0.1
v 1.96962 0.347296 0.1
v 2.16658 0.382026 0.1
v 2.16658 0.382026 0.1
v 2.16658 0.382026 -0.1
v 2.16658 0.382026 -0.1
v 1.96962 0.347296 -0.1
v 1.96962 0.347296 -0.1
v 1.96962 0.347296 0.1
# 288 vertices

vt 0.04545 0.50000
vt 0.00000 0.50000
vt 0.00760 0.58682
vt 0.05236 0.57893
vt 0.00000 0.00000
vt 0.00000 1.00000
vt 0.02778 1.00000
vt 0.02778 0.00000
vt 1.00000 0.50000
vt 0.95455 0.50000
vt 0.94764 0.57893
vt 0.99240 0.58682
vt 0.03015 0.67101
vt 0.07287 0.65546
vt 0.05556 1.00000
vt 0.05556 0.00000
vt 0.92713 0.65546
vt 0.96985 0.67101
vt 0.06699 0.75000
vt 0.10635 0.72727
vt 0.08333 1.00000
vt 0.08333 0.00000
vt 0.89365 0.72727
vt 0.93301 0.75000
vt 0.11698 0.82139
vt 0.15180 0.79218
vt 0.11111 1.00000
vt 0.11111 0.00000
vt 0.84820 0.79218
vt 0.88302 0.82139
vt 0.17861 0.88302
vt 0.20782 0.84820
vt 0.13889 1.00000
vt 0.13889 0.00000
vt 0.79218 0.84820
vt 0.82139 0.88302
vt 0.25000 0.93301
vt 0.27273 0.89365
vt 0.16667 1.00000
vt 0.16667 0.00000
vt 0.72727 0.89365
vt 0.75000 0.93301
vt 0.32899 0.96985
vt 0.34454 0.92713
vt 0.19444 1.00000
vt 0.19444 0.00000
vt 0.65546 0.92713
vt 0.67101 0.96985
vt 0.41318 0.99240
vt 0.42107 0.94764
vt 0.22222 1.00000
vt 0.22222 0.00000
vt 0.57893 0.94764
vt 0.58682 0.99240
vt 0.50000 1.00000
vt 0.50000 0.95455
vt 0.25000 1.00000
vt 0.25000 0.00000
vt 0.27778 1.00000
vt 0.27778 0.00000
vt 0.30556 1.00000
vt 0.30556 0.00000
vt 0.33333 1.00000
vt 0.33333 0.00000
vt 0.36111 1.00000
vt 0.36111 0.00000
vt 0.38889 1.00000
vt 0.38889 0.00000
vt 0.41667 1.00000
vt 0.41667 0.00000
vt 0.44444 1.00000
vt 0.44444 0.00000
vt 0.47222 1.00000
vt 0.47222 0.00000
vt 0.50000 0.00000
vt 0.99240 0.41318
vt 0.94764 0.42107
vt 0.52778 1.00000
vt 0.52778 0.00000
vt 0.05236 0.42107
vt 0.00760 0.41318
vt 0.96985 0.32899
vt 0.92713 0.34454
vt 0.55556 1.00000
vt 0.55556 0.00000
vt 0.07287 0.34454
vt 0.03015 0.32899
vt 0.93301 0.25000
vt 0.89365 0.27273
vt 0.58333 1.00000
vt 0.58333 0.00000
vt 0.10635 0.27273
vt 0.06699 0.25000
vt 0.88302 0.17861
vt 0.84820 0.20782
vt 0.61111 1.00000
vt 0.61111 0.00000
vt 0.15180 0.20782
vt 0.11698 0.17861
vt 0.82139 0.11698
vt 0.79218 0.15180
vt 0.63889 1.00000
vt 0.63889 0.00000
vt 0.20782 0.15180
vt 0.17861 0.11698
vt 0.75000 0.06699
vt 0.72727 0.10635
vt 0.66667 1.00000
vt 0.66667 0.00000
vt 0.27273 0.10635
vt 0.25000 0.06699
vt 0.67101 0.03015
vt 0.65546 0.07287
vt 0.69444 1.00000
vt 0.69444 0.00000
vt 0.34454 0.07287
vt 0.32899 0.03015
vt 0.58682 0.00760
vt 0.57893 0.05236
vt 0.72222 1.00000
vt 0.72222 0.00000
vt 0.42107 0.05236
vt 0.41318 0.00760
vt 0.50000 0.04545
vt 0.75000 1.00000
vt 0.75000 0.00000
vt 0.77778 1.00000
vt 0.77778 0.00000
vt 0.80556 1.00000
vt 0.80556 0.00000
vt 0.83333 1.00000
vt 0.83333 0.00000
vt 0.86111 1.00000
vt 0.86111 0.00000
vt 0.88889 1.00000
vt 0.88889 0.00000
vt 0.91667 1.00000
vt 0.91667 0.00000
vt 0.94444 1.00000
vt 0.94444 0.00000
vt 0.97222 1.00000
vt 0.97222 0.00000
vt 1.00000 1.00000
vt 1.00000 0.00000
# 144 texture coordinates

vn 0 0 1
vn 1 0 -0
vn 0.984808 -0.173648 -0
vn 0 0 -1
vn -1 0 -0
vn -0.984808 0.173648 -0
vn 0.939693 -0.34202 -0
vn -0.939693 0.34202 -0
vn 0.866025 -0.5 -0
vn -0.866025 0.5 -0
vn 0.766044 -0.642788 -0
vn -0.766045 0.642788 -0
vn 0.642788 -0.766044 -0
vn -0.642788 0.766045 -0
vn 0.5 -0.866025 -0
vn -0.5 0.866025 -0
vn 0.34202 -0.939693 -0
vn -0.34202 0.939693 -0
vn 0.173648 -0.984808 -0
vn -0.173648 0.984808 -0
vn 0 -1 -0
vn 0 1 -0
vn -0.173648 -0.984808 -0
vn 0.173648 0.984808 -0
vn -0.34202 -0.939693 -0
vn 0.34202 0.939693 -0
vn -0.5 -0.866025 -0
vn 0.5 0.866025 -0
vn -0.642788 -0.766044 -0
vn 0.642788 0.766045 -0
vn -0.766044 -0.642788 -0
vn 0.766045 0.642788 -0
vn -0.866025 -0.5 -0
vn 0.866025 0.5 -0
vn -0.939693 -0.34202 -0
vn 0.939693 0.34202 -0
vn -0.984808 -0.173648 -0
vn 0.984808 0.173648 -0
vn -0.984808 0.173648 -0
vn 0.984808 -0.173648 -0
vn -0.939693 0.34202 -0
vn 0.939693 -0.34202 -0
vn -0.866025 0.5 -0
vn 0.866025 -0.5 -0
vn -0.766044 0.642788 -0
vn 0.766045 -0.642788 -0
vn -0.642788 0.766044 -0
vn 0.642788 -0.766045 -0
vn -0.5 0.866025 -0
vn 0.5 -0.866025 -0
vn -0.34202 0.939693 -0
vn 0.34202 -0.939693 -0
vn -0.173648 0.984808 -0
vn 0.173648 -0.984808 -0
vn 0.173648 0.984808 -0
vn -0.173648 -0.984808 -0
vn 0.34202 0.939693 -0
vn -0.34202 -0.939693 -0
vn 0.5 0.866025 -0
vn -0.5 -0.866025 -0
vn 0.642788 0.766044 -0
vn -0.642788 -0.766045 -0
vn 0.766044 0.642788 -0
vn -0.766045 -0.642788 -0
vn 0.866025 0.5 -0
vn -0.866025 -0.5 -0
vn 0.939693 0.34202 -0
vn -0.939693 -0.34202 -0
vn 0.984808 0.173648 -0
vn -0.984808 -0.173648 -0
# 70 vertex normals

f 9/4/1 10/3/1 2/2/1 1/1/1
f 11/8/3 12/7/3 4/6/2 3/5/2
f 13/12/4 14/11/4 6/10/4 5/9/4
f 15/8/6 16/7/6 8/6/5 7/5/5
f 17/14/1 18/13/1 10/3/1 9/4/1
f 19/16/7 20/15/7 12/7/3 11/8/3
f 21/18/4 22/17/4 14/11/4 13/12/4
f 23/16/8 24/15/8 16/7/6 15/8/6
f 25/20/1 26/19/1 18/13/1 17/14/1
f 27/22/9 28/21/9 20/15/7 19/16/7
f 29/24/4 30/23/4 22/17/4 21/18/4
f 31/22/10 32/21/10 24/15/8 23/16/8
f 33/26/1 34/25/1 26/19/1 25/20/1
f 35/28/11 36/27/11 28/21/9 27/22/9
f 37/30/4 38/29/4 30/23/4 29/24/4
f 39/28/12 40/27/12 32/21/10 31/22/10
f 41/32/1 42/31/1 34/25/1 33/26/1
f 43/34/13 44/33/13 36/27/11 35/28/11
f 45/36/4 46/35/4 38/29/4 37/30/4
f 47/34/14 48/33/14 40/27/12 39/28/12
f 49/38/1 50/37/1 42/31/1 41/32/1
f 51/40/15 52/39/15 44/33/13 43/34/13
f 53/42/4 54/41/4 46/35/4 45/36/4
f 55/40/16 56/39/16 48/33/14 47/34/14
f 57/44/1 58/43/1 50/37/1 49/38/1
f 59/46/17 60/45/17 52/39/15 51/40/15
f 61/48/4 62/47/4 54/41/4 53/42/4
f 63/46/18 64/45/18 56/39/16 55/40/16
f 65/50/1 66/49/1 58/43/1 57/44/1
f 67/52/19 68/51/19 60/45/17 59/46/17
f 69/54/4 70/53/4 62/47/4 61/48/4
f 71/52/20 72/51/20 64/45/18 63/46/18
f 73/56/1 74/55/1 66/49/1 65/50/1
f 75/58/21 76/57/21 68/51/19 67/52/19
f 77/55/4 78/56/4 70/53/4 69/54/4
f 79/58/22 80/57/22 72/51/20 71/52/20
f 81/53/1 82/54/1 74/55/1 73/56/1
f 83/60/23 84/59/23 76/57/21 75/58/21
f 85/49/4 86/50/4 78/56/4 77/55/4
f 87/60/24 88/59/24 80/57/22 79/58/22
f 89/47/1 90/48/1 82/54/1 81/53/1
f 91/62/25 92/61/25 84/59/23 83/60/23
f 93/43/4 94/44/4 86/50/4 85/49/4
f 95/62/26 96/61/26 88/59/24 87/60/24
f 97/41/1 98/42/1 90/48/1 89/47/1
f 99/64/27 100/63/27 92/61/25 91/62/25
f 101/37/4 102/38/4 94/44/4 93/43/4
f 103/64/28 104/63/28 96/61/26 95/62/26
f 105/35/1 106/36/1 98/42/1 97/41/1
f 107/66/29 108/65/29 100/63/27 99/64/27
f 109/31/4 110/32/4 102/38/4 101/37/4
f 111/66/30 112/65/30 104/63/28 103/64/28
f 113/29/1 114/30/1 106/36/1 105/35/1
f 115/68/31 116/67/31 108/65/29 107/66/29
f 117/25/4 118/26/4 110/32/4 109/31/4
f 119/68/32 120/67/32 112/65/30 111/66/30
f 121/23/1 122/24/1 114/30/1 113/29/1
f 123/70/33 124/69/33 116/67/31 115/68/31
f 125/19/4 126/20/4 118/26/4 117/25/4
f 127/70/34 128/69/34 120/67/32 119/68/32
f 129/17/1 130/18/1 122/24/1 121/23/1
f 131/72/35 132/71/35 124/69/33 123/70/33
f 133/13/4 134/14/4 126/20/4 125/19/4
f 135/72/36 136/71/36 128/69/34 127/70/34
f 137/11/1 138/12/1 130/18/1 129/17/1
f 139/74/37 140/73/37 132/71/35 131/72/35
f 141/3/4 142/4/4 134/14/4 133/13/4
f 143/74/38 144/73/38 136/71/36 135/72/36
f 145/10/1 146/9/1 138/12/1 137/11/1
f 147/75/5 148/55/5 140/73/37 139/74/37
f 149/2/4 150/1/4 142/4/4 141/3/4
f 151/75/2 152/55/2 144/73/38 143/74/38
f 153/77/1 154/76/1 146/9/1 145/10/1
f 155/79/39 156/78/39 148/55/5 147/75/5
f 157/81/4 158/80/4 150/1/4 149/2/4
f 159/79/40 160/78/40 152/55/2 151/75/2
f 161/83/1 162/82/1 154/76/1 153/77/1
f 163/85/41 164/84/41 156/78/39 155/79/39
f 165/87/4 166/86/4 158/80/4 157/81/4
f 167/85/42 168/84/42 160/78/40 159/79/40
f 169/89/1 170/88/1 162/82/1 161/83/1
f 171/91/43 172/90/43 164/84/41 163/85/41
f 173/93/4 174/92/4 166/86/4 165/87/4
f 175/91/44 176/90/44 168/84/42 167/85/42
f 177/95/1 178/94/1 170/88/1 169/89/1
f 179/97/45 180/96/45 172/90/43 171/91/43
f 181/99/4 182/98/4 174/92/4 173/93/4
f 183/97/46 184/96/46 176/90/44 175/91/44
f 185/101/1 186/100/1 178/94/1 177/95/1
f 187/103/47 188/102/47 180/96/45 179/97/45
f 189/105/4 190/104/4 182/98/4 181/99/4
f 191/103/48 192/102/48 184/96/46 183/97/46
f 193/107/1 194/106/1 186/100/1 185/101/1
f 195/109/49 196/108/49 188/102/47 187/103/47
f 197/111/4 198/110/4 190/104/4 189/105/4
f 199/109/50 200/108/50 192/102/48 191/103/48
f 201/113/1 202/112/1 194/106/1 193/107/1
f 203/115/51 204/114/51 196/108/49 195/109/49
f 205/117/4 206/116/4 198/110/4 197/111/4
f 207/115/52 208/114/52 200/108/50 199/109/50
f 209/119/1 210/118/1 202/112/1 201/113/1
f 211/121/53 212/120/53 204/114/51 203/115/51
f 213/123/4 214/122/4 206/116/4 205/117/4
f 215/121/54 216/120/54 208/114/52 207/115/52
f 217/124/1 218/75/1 210/118/1 209/119/1
f 219/126/22 220/125/22 212/120/53 211/121/53
f 221/75/4 222/124/4 214/122/4 213/123/4
f 223/126/21 224/125/21 216/120/54 215/121/54
f 225/122/1 226/123/1 218/75/1 217/124/1
f 227/128/55 228/127/55 220/125/22 219/126/22
f 229/118/4 230/119/4 222/124/4 221/75/4
f 231/128/56 232/127/56 224/125/21 223/126/21
f 233/116/1 234/117/1 226/123/1 225/122/1
f 235/130/57 236/129/57 228/127/55 227/128/55
f 237/112/4 238/113/4 230/119/4 229/118/4
f 239/130/58 240/129/58 232/127/56 231/128/56
f 241/110/1 242/111/1 234/117/1 233/116/1
f 243/132/59 244/131/59 236/129/57 235/130/57
f 245/106/4 246/107/4 238/113/4 237/112/4
f 247/132/60 248/131/60 240/129/58 239/130/58
f 249/104/1 250/105/1 242/111/1 241/110/1
f 251/134/61 252/133/61 244/131/59 243/132/59
f 253/100/4 254/101/4 246/107/4 245/106/4
f 255/134/62 256/133/62 248/131/60 247/132/60
f 257/98/1 258/99/1 250/105/1 249/104/1
f 259/136/63 260/135/63 252/133/61 251/134/61
f 261/94/4 262/95/4 254/101/4 253/100/4
f 263/136/64 264/135/64 256/133/62 255/134/62
f 265/92/1 266/93/1 258/99/1 257/98/1
f 267/138/65 268/137/65 260/135/63 259/136/63
f 269/88/4 270/89/4 262/95/4 261/94/4
f 271/138/66 272/137/66 264/135/64 263/136/64
f 273/86/1 274/87/1 266/93/1 265/92/1
f 275/140/67 276/139/67 268/137/65 267/138/65
f 277/82/4 278/83/4 270/89/4 269/88/4
f 279/140/68 280/139/68 272/137/66 271/138/66
f 281/80/1 282/81/1 274/87/1 273/86/1
f 283/142/69 284/141/69 276/139/67 275/140/67
f 285/76/4 286/77/4 278/83/4 277/82/4
f 287/142/70 288/141/70 280/139/68 279/140/68
f 1/1/1 2/2/1 282/81/1 281/80/1
f 3/144/2 4/143/2 284/141/69 283/142/69
f 5/9/4 6/10/4 286/77/4 285/76/4
f 7/144/5 8/143/5 288/141/70 287/142/70
# 144 facets

