# Blender v2.77 (sub 0) OBJ File: ''
# www.blender.org
mtllib d.mtl
o Sphere
v 0.000000 0.000000 -1.000000
v 0.500000 0.000000 0.000000
v 0.000000 -0.500000 -0.000000
v 0.000000 0.500000 0.000000
v -0.500000 0.000000 0.000000
v 0.000000 -0.000000 1.000000
vt 0.2500 0.5000
vt 0.0000 0.5000
vt 0.0000 0.0000
vt 0.0000 1.0000
vt 0.5000 0.5000
vt 0.2500 0.0000
vt 0.2500 1.0000
vt 0.7500 0.5000
vt 0.5000 0.0000
vt 0.5000 1.0000
vt 1.0000 0.5000
vt 0.7500 0.0000
vt 0.7500 1.0000
vn 0.6667 -0.6667 -0.3333
vn 0.6667 0.6667 -0.3333
vn -0.6667 -0.6667 -0.3333
vn -0.6667 0.6667 -0.3333
vn -0.6667 -0.6667 0.3333
vn -0.6667 0.6667 0.3333
vn 0.6667 -0.6667 0.3333
vn 0.6667 0.6667 0.3333
usemtl None
s off
f 1/1/1 2/2/1 3/3/1
f 4/4/2 2/2/2 1/1/2
f 5/5/3 1/1/3 3/6/3
f 4/7/4 1/1/4 5/5/4
f 6/8/5 5/5/5 3/9/5
f 4/10/6 5/5/6 6/8/6
f 2/11/7 6/8/7 3/12/7
f 4/13/8 6/8/8 2/11/8
