#  ==========================================================================
#  
#  Wavefront OBJ format exported by Red-i Productions' "Riptide Pro"
#     (a commercial plugin for Cinema 4D PC & Mac, R9.6 or later)
#  
#  Red-i Productions
#  http://skinprops.com
#  
#  ==========================================================================
mtllib box.mtl
v -0.72 -1 -0.509115
v -0.72 1 -0.509115
v -0.72 -1 -0.00511532
v -0.72 1 -0.0051154
v 0.72 -1 -0.00511538
v 0.72 1 -0.00511546
v 0.72 -1 -0.509115
v 0.72 1 -0.509115
# 8 vertices

vt 1.00000 0.00000
vt 1.00000 1.00000
vt 0.00000 1.00000
vt 0.00000 0.00000
# 4 texture coordinates

vn 1 5.4746e-24 -4.21468e-08
vn -1.77636e-15 1 -4.21468e-08
vn -1 -5.4746e-24 4.21468e-08
vn 4.21468e-08 4.21468e-08 1
vn 1.77636e-15 -1 4.21468e-08
# 5 vertex normals

f 1/4/1 2/3/1 4/2/1 3/1/1
f 7/4/2 1/3/2 3/2/2 5/1/2
f 5/4/3 6/3/3 8/2/3 7/1/3
f 7/4/4 8/3/4 2/2/4 1/1/4
f 2/4/5 8/3/5 6/2/5 4/1/5
# 5 facets

